<svg width="48" height="48" viewBox="0 0 48 48" fill="none" xmlns="http://www.w3.org/2000/svg">
<g clip-path="url(#clip0_172_598)">
<path d="M23.83 47.66C36.9909 47.66 47.66 36.9909 47.66 23.83C47.66 10.6691 36.9909 0 23.83 0C10.6691 0 0 10.6691 0 23.83C0 36.9909 10.6691 47.66 23.83 47.66Z" fill="url(#paint0_linear_172_598)"/>
<path d="M25.85 22.16L33.75 12.97H31.88L25.02 20.95L19.54 12.97H13.22L21.51 25.03L13.22 34.66H15.09L22.34 26.24L28.13 34.66H34.45L25.85 22.15V22.16ZM23.29 25.14L22.45 23.94L15.77 14.38H18.65L24.04 22.09L24.88 23.29L31.89 33.32H29.01L23.29 25.14Z" fill="white"/>
</g>
<defs>
<linearGradient id="paint0_linear_172_598" x1="6.98" y1="6.98" x2="40.68" y2="40.68" gradientUnits="userSpaceOnUse">
<stop stop-color="#23004A"/>
<stop offset="0.96" stop-color="#010003"/>
<stop offset="1"/>
</linearGradient>
<clipPath id="clip0_172_598">
<rect width="47.66" height="47.66" fill="white"/>
</clipPath>
</defs>
</svg>
