<svg width="48" height="48" viewBox="0 0 48 48" fill="none" xmlns="http://www.w3.org/2000/svg">
<g clip-path="url(#clip0_172_592)">
<path d="M23.83 47.66C36.9909 47.66 47.66 36.9909 47.66 23.83C47.66 10.6691 36.9909 0 23.83 0C10.6691 0 0 10.6691 0 23.83C0 36.9909 10.6691 47.66 23.83 47.66Z" fill="url(#paint0_linear_172_592)"/>
<path d="M26.47 39.01V25.73H30.9L31.74 20.24H26.47V16.67C26.47 15.17 27.21 13.7 29.57 13.7H31.97V9.02C31.97 9.02 29.79 8.65 27.72 8.65C23.38 8.65 20.54 11.28 20.54 16.04V20.23H15.71V25.72H20.54V39H26.48L26.47 39.01Z" fill="white"/>
</g>
<defs>
<linearGradient id="paint0_linear_172_592" x1="6.98" y1="6.98" x2="40.68" y2="40.68" gradientUnits="userSpaceOnUse">
<stop stop-color="#1677F1"/>
<stop offset="0.18" stop-color="#176EE9"/>
<stop offset="0.46" stop-color="#1D55D3"/>
<stop offset="0.82" stop-color="#252EB0"/>
<stop offset="1" stop-color="#2B189C"/>
</linearGradient>
<clipPath id="clip0_172_592">
<rect width="47.66" height="47.66" fill="white"/>
</clipPath>
</defs>
</svg>
